<?xml version="1.0" encoding="UTF-8"?>
<svg version="1.1" xmlns="http://www.w3.org/2000/svg" viewBox="130 130 240 240">
<path d="M0 0 C1.02738281 0.54785156 2.05476562 1.09570312 3.11328125 1.66015625 C9.86317262 5.42534343 16.40898466 9.61926621 22 15 C22 15.66 22 16.32 22 17 C22.55300781 17.20496094 23.10601562 17.40992188 23.67578125 17.62109375 C37.90030549 26.06018124 46.13183176 48.29248888 50.125 63.390625 C56.00418935 87.64228106 52.44821226 114.18819475 40.375 135.92578125 C36.19278027 142.77029363 31.26384375 148.95983397 26 155 C25.17242187 155.95519531 25.17242187 155.95519531 24.328125 156.9296875 C9.05928736 173.33234972 -15.41284897 183.79095851 -37.6171875 184.9453125 C-38.40351563 184.96335937 -39.18984375 184.98140625 -40 185 C-40.76570313 185.03867187 -41.53140625 185.07734375 -42.3203125 185.1171875 C-68.33666363 185.8899504 -92.90846801 176.60000605 -112 159 C-112.639375 158.42894531 -113.27875 157.85789062 -113.9375 157.26953125 C-130.67910781 141.53690427 -141.61867332 117.66880017 -142.43359375 94.73046875 C-142.45680342 92.21625262 -142.4576178 89.70174277 -142.4375 87.1875 C-142.43065186 85.86959473 -142.42380371 84.55168945 -142.41674805 83.19384766 C-142.25747273 73.52875873 -141.3420973 65.09006921 -138 56 C-137.42185547 54.40091797 -137.42185547 54.40091797 -136.83203125 52.76953125 C-135.66202189 49.78203162 -134.3807517 46.89551754 -133 44 C-132.58234375 43.11183594 -132.1646875 42.22367188 -131.734375 41.30859375 C-128.83167607 35.5782657 -125.29518377 30.50220615 -121.375 25.4375 C-120.67383057 24.52508545 -120.67383057 24.52508545 -119.95849609 23.59423828 C-117.59040506 20.62127732 -115.63420729 18.30524346 -112 17 C-112 16.34 -112 15.68 -112 15 C-100.92196592 4.34708235 -87.47353085 -2.4159097 -73 -7 C-71.96230469 -7.34160156 -70.92460937 -7.68320313 -69.85546875 -8.03515625 C-47.12894641 -14.18132267 -20.62104515 -11.12416019 0 0 Z " fill="#FD603F" transform="translate(295,152)"/>
<path d="M0 0 C3.4769734 0.64187833 6.06358802 1.38831573 9.1015625 3.21484375 C9.83890625 3.65376953 10.57625 4.09269531 11.3359375 4.54492188 C12.09132813 5.00447266 12.84671875 5.46402344 13.625 5.9375 C14.388125 6.39318359 15.15125 6.84886719 15.9375 7.31835938 C19.00400419 9.15557197 22.02487912 11.01658608 25 13 C25.14672852 15.08789062 25.14672852 15.08789062 24.87890625 17.65625 C24.276543 26.44536095 24.276543 26.44536095 26 35 C30.82975435 40.40335316 37.37775099 42.31405285 44 45 C44 54.9 44 64.8 44 75 C34.9139616 70.66348167 26.19494319 65.89069441 17.5 60.8125 C16.46166016 60.20647949 15.42332031 59.60045898 14.35351562 58.97607422 C11.55828515 57.33312808 8.76600516 55.69171757 6 54 C4.91187012 53.50749756 3.82374023 53.01499512 2.70263672 52.50756836 C-0.41235763 49.61740513 -0.43706622 49.01851536 -0.68115234 44.95605469 C-0.68020363 42.86108791 -0.64637244 40.7659701 -0.5859375 38.671875 C-0.57744781 37.56773254 -0.56895813 36.46359009 -0.56021118 35.32598877 C-0.52662627 31.7996663 -0.45133107 28.27563116 -0.375 24.75 C-0.34490727 22.35940802 -0.31753028 19.9687802 -0.29296875 17.578125 C-0.22681826 11.71796969 -0.12641725 5.85914823 0 0 Z " fill="#FC6D43" transform="translate(255,186)"/>
<path d="M0 0 C0 17.16 0 34.32 0 52 C-3.774375 54.10375 -7.54875 56.2075 -11.4375 58.375 C-20.04789067 63.18006634 -28.61445556 68.04121058 -37.04663086 73.15380859 C-41.79048446 76 -41.79048446 76 -44 76 C-46.30806808 55.90008061 -46.30806808 55.90008061 -44 47 C-40.88631347 43.26705029 -36.85851157 41.8092095 -32.45996094 39.98046875 C-29.9715253 38.83180921 -28.00812866 37.8721108 -26 36 C-25.11725677 32.3574422 -25.52264796 28.89288947 -25.875 25.1875 C-26.22661673 21.18258208 -26.3583627 17.82048326 -25 14 C-19.90026745 8.7675406 -7.6659588 0 0 0 Z " fill="#FB553C" transform="translate(245,185)"/>
<path d="M0 0 C1.92979674 1.23570742 3.8022162 2.53102744 5.67089844 3.85742188 C10.47202398 7.11453765 15.59270296 9.86929587 20.625 12.75 C22.68162046 13.95112348 24.73641546 15.15537999 26.7890625 16.36328125 C27.67287598 16.88317627 28.55668945 17.40307129 29.46728516 17.9387207 C31.98433589 19.42823048 34.49371492 20.92995799 37 22.4375 C33.45560561 26.25842733 29.08421809 28.569595064 24.625 31.1875 C23.77421875 31.70699219 22.9234375 32.22648437 22.046875 32.76171875 C20.80550781 33.49068359 20.80550781 33.49068359 19.5390625 34.234375 C18.41298584 34.90484863 18.41298584 34.90484863 17.26416016 35.58886719 C14.3858032 36.6677079 12.90774673 36.3519422 10 35.4375 C8.05883789 34.46606445 8.05883789 34.46606445 6.22265625 33.30078125 C5.54396484 32.88892578 4.86527344 32.47707031 4.16601562 32.05273438 C2.76121244 31.18272163 1.36272393 30.3024308 -0.02929688 29.41210938 C-4.25699225 26.84067488 -4.25699225 26.84067488 -9.09765625 26.90625 C-13.54182212 29.25095124 -17.6297267 32.03342136 -21.78125 34.85546875 C-25.71688776 36.78985381 -26.86865416 36.83471915 -31 35.4375 C-34.38892466 33.73825936 -37.62978773 31.83239083 -40.875 29.875 C-41.75414062 29.35486328 -42.63328125 28.83472656 -43.5390625 28.29882812 C-45.6978235 27.01999688 -47.85107726 25.73277161 -50 24.4375 C-48.70140649 20.54171946 -47.30831476 20.17644857 -43.77734375 18.1796875 C-42.6891333 17.55715088 -41.60092285 16.93461426 -40.47973633 16.29321289 C-39.29982798 15.63148046 -38.11906446 14.97127079 -36.9375 14.3125 C-34.54348165 12.97666438 -32.15001141 11.63987296 -29.7578125 10.30078125 C-29.16795059 9.97192429 -28.57808868 9.64306732 -27.97035217 9.304245 C-24.60488103 7.40892994 -21.39309846 5.40015511 -18.2421875 3.16796875 C-11.83496041 -1.28691768 -7.58720365 -3.88143604 0 0 Z " fill="#FB6140" transform="translate(257,247.5625)"/>
<path d="M0 0 C15.34628433 2.76736275 30.76869456 11.19111091 42 22 C42 22.66 42 23.32 42 24 C42.55300781 24.20496094 43.10601562 24.40992188 43.67578125 24.62109375 C46.88407572 26.52450206 48.92681465 29.16041461 51.1875 32.0625 C51.66582275 32.67593262 52.14414551 33.28936523 52.63696289 33.92138672 C60.6587194 44.5434639 70 59.3659123 70 73 C69.34 73 68.68 73 68 73 C67.67 73.66 67.34 74.32 67 75 C67.33 72.69 67.66 70.38 68 68 C66.02 67.67 64.04 67.34 62 67 C62 66.01 62 65.02 62 64 C62.99 64 63.98 64 65 64 C64.01 61.525 64.01 61.525 63 59 C63 59.99 63 60.98 63 62 C62.34 62 61.68 62 61 62 C61.03480469 61.41992188 61.06960938 60.83984375 61.10546875 60.2421875 C61.28530278 55.05269113 61.02914409 51.43553242 58 47 C55.94906855 45.59533047 55.94906855 45.59533047 54 45 C54.33 43.35 54.66 41.7 55 40 C52.03 39.67 49.06 39.34 46 39 C45.45627049 35.94152152 45 33.11227195 45 30 C44.01 30 43.02 30 42 30 C41.505 29.01 41.505 29.01 41 28 C40.34 28.99 39.68 29.98 39 31 C37.68 30.67 36.36 30.34 35 30 C35.639375 29.773125 36.27875 29.54625 36.9375 29.3125 C39.27193661 28.14749104 39.27193661 28.14749104 39.75 25.375 C39.8325 24.59125 39.915 23.8075 40 23 C38.35 23 36.7 23 35 23 C34.34 21.68 33.68 20.36 33 19 C32.34 19 31.68 19 31 19 C31 18.34 31 17.68 31 17 C30.34 17 29.68 17 29 17 C27.62689293 15.70766393 26.28965176 14.37562854 25 13 C24.01 13.33 23.02 13.66 22 14 C22 14.33 22 14.66 22 15 C20.35 15 18.7 15 17 15 C17 14.34 17 13.68 17 13 C16.34 13 15.68 13 15 13 C15.33 11.68 15.66 10.36 16 9 C15.01 8.67 14.02 8.34 13 8 C11.5459375 7.1646875 11.5459375 7.1646875 10.0625 6.3125 C9.051875 5.879375 8.04125 5.44625 7 5 C4.91666667 5.83333333 4.91666667 5.83333333 3 7 C0.25 6.625 0.25 6.625 -2 6 C-1.33333333 4 -0.66666667 2 0 0 Z " fill="#EA8458" transform="translate(275,145)"/>
<path d="M0 0 C2.97 0.495 2.97 0.495 6 1 C6 1.66 6 2.32 6 3 C5.01 3.66 4.02 4.32 3 5 C6.3340947 7.19097652 9.04179141 8.43454163 13 9 C13.80693075 13.25875373 14.13514127 17.29656576 14.16113281 21.62866211 C14.17074036 22.92698471 14.1803479 24.22530731 14.19024658 25.56297302 C14.19509442 26.96776146 14.19937328 28.37255196 14.203125 29.77734375 C14.20595238 30.49125338 14.20877975 31.205163 14.21169281 31.94070625 C14.22663219 35.71592701 14.23589581 39.49111005 14.24023438 43.26635742 C14.24572309 47.15104446 14.26977428 51.03538175 14.29820633 54.91995907 C14.31688743 57.92180882 14.32204112 60.92357502 14.32357025 63.92547798 C14.32658304 65.3571216 14.33456484 66.78876424 14.34775543 68.22035027 C14.46556773 81.9844378 14.46556773 81.9844378 11 88 C9.35 88 7.7 88 6 88 C6 88.66 6 89.32 6 90 C5.01 90 4.02 90 3 90 C3 90.66 3 91.32 3 92 C3.99 92.33 4.98 92.66 6 93 C5.67 93.99 5.34 94.98 5 96 C4.67 95.67 4.34 95.34 4 95 C2.15400312 94.60545777 0.29774178 94.25823134 -1.5625 93.9375 C-2.57441406 93.76089844 -3.58632813 93.58429688 -4.62890625 93.40234375 C-5.41136719 93.26957031 -6.19382812 93.13679688 -7 93 C-4 90 -4 90 10 82 C10 58.9 10 35.8 10 12 C3.07 8.04 3.07 8.04 -4 4 C-2.68 3.67 -1.36 3.34 0 3 C0 2.01 0 1.02 0 0 Z " fill="#E38158" transform="translate(298,192)"/>
<path d="M0 0 C0.99 0.33 1.98 0.66 3 1 C2.34 1.33 1.68 1.66 1 2 C1 2.66 1 3.32 1 4 C-0.65 4.33 -2.3 4.66 -4 5 C-4.33 5.99 -4.66 6.98 -5 8 C-7.0625 8.6875 -7.0625 8.6875 -9 9 C-9 9.99 -9 10.98 -9 12 C-9.639375 12.61875 -10.27875 13.2375 -10.9375 13.875 C-13.32856776 16.33852436 -13.74635747 17.6180996 -14 21 C-13.63143136 23.23167185 -13.63143136 23.23167185 -13 25 C-15.375 26.5625 -15.375 26.5625 -18 28 C-18.66 27.67 -19.32 27.34 -20 27 C-20.99 27.66 -21.98 28.32 -23 29 C-22.34 30.65 -21.68 32.3 -21 34 C-22.1446875 34.5878125 -22.1446875 34.5878125 -23.3125 35.1875 C-28.3803181 38.60533081 -29.56442826 43.12230507 -30.73046875 48.8671875 C-31.0568854 51.45013666 -30.59707402 53.47902082 -30 56 C-30.26871451 58.34165499 -30.59038404 60.67884289 -31 63 C-30.34 63.33 -29.68 63.66 -29 64 C-29.99 64.99 -29.99 64.99 -31 66 C-31.680625 66.70125 -32.36125 67.4025 -33.0625 68.125 C-35 70 -35 70 -36 70 C-37.13541827 56.87961114 -32.5794032 43.70033672 -27 32 C-26.37351563 30.66775391 -26.37351563 30.66775391 -25.734375 29.30859375 C-22.83167607 23.5782657 -19.29518377 18.50220615 -15.375 13.4375 C-14.67383057 12.52508545 -14.67383057 12.52508545 -13.95849609 11.59423828 C-11.59040506 8.62127732 -9.63420729 6.30524346 -6 5 C-6 4.34 -6 3.68 -6 3 C-5.195625 2.690625 -4.39125 2.38125 -3.5625 2.0625 C-1.10919595 1.23664655 -1.10919595 1.23664655 0 0 Z " fill="#E6413D" transform="translate(189,164)"/>
<path d="M0 0 C1.6014727 22.02024965 -10.10384392 43.25052652 -23.828125 59.5078125 C-24.54484375 60.33023438 -25.2615625 61.15265625 -26 62 C-26.55171875 62.63679688 -27.1034375 63.27359375 -27.671875 63.9296875 C-32.92882132 69.57700112 -39.45756635 73.96473673 -46 78 C-46.66 78 -47.32 78 -48 78 C-48 77.01 -48 76.02 -48 75 C-47.401875 74.95875 -46.80375 74.9175 -46.1875 74.875 C-43.68320504 74.16831574 -43.68320504 74.16831574 -42.75 71.1875 C-40.62007875 67.30800058 -38.83283175 66.61619119 -34.83984375 65.0546875 C-32.5375803 63.73491864 -31.97026286 62.42314351 -31 60 C-29.515 60.495 -29.515 60.495 -28 61 C-28 60.34 -28 59.68 -28 59 C-27.34 59 -26.68 59 -26 59 C-25.34 57.35 -24.68 55.7 -24 54 C-23.01 54 -22.02 54 -21 54 C-21 53.01 -21 52.02 -21 51 C-20.01 50.505 -20.01 50.505 -19 50 C-18.34444881 47.47266765 -18.34444881 47.47266765 -18 45 C-17.34 45 -16.68 45 -16 45 C-16 44.34 -16 43.68 -16 43 C-16.66 42.67 -17.32 42.34 -18 42 C-16.02 41.505 -16.02 41.505 -14 41 C-14 40.34 -14 39.68 -14 39 C-13.34 39 -12.68 39 -12 39 C-10.48046291 34.08417923 -10.48046291 34.08417923 -10 29 C-9.7215625 27.2365625 -9.7215625 27.2365625 -9.4375 25.4375 C-8.69466488 22.14687006 -8.69466488 22.14687006 -10 20 C-8.35 19.67 -6.7 19.34 -5 19 C-3.3722167 12.85221129 -2.79809911 7.35987804 -3 1 C-1 0 -1 0 0 0 Z " fill="#F28E57" transform="translate(347,245)"/>
<path d="M0 0 C2.97 0 5.94 0 9 0 C8.35132965 0.35675308 7.7026593 0.71350616 7.03433228 1.08106995 C4.71190009 2.88807925 4.71190009 2.88807925 4.47860718 5.99131775 C4.4693924 7.21613358 4.46017761 8.4409494 4.45068359 9.70288086 C4.44046173 10.37964371 4.43023987 11.05640656 4.41970825 11.75367737 C4.39190483 13.99109253 4.39382954 16.22727637 4.3984375 18.46484375 C4.39066395 20.02039549 4.38199468 21.575943 4.37246704 23.13148499 C4.35754033 26.39240273 4.35812599 29.65288744 4.36865234 32.91381836 C4.38024232 37.0920047 4.34638654 41.26841792 4.299963 45.446311 C4.27049084 48.65916803 4.26874414 51.87159786 4.27498245 55.08456612 C4.27395581 56.62476679 4.26347553 58.16499132 4.24335861 59.70506096 C4.21866023 61.86045161 4.23217807 64.0123888 4.25537109 66.16772461 C4.25411224 67.39333603 4.25285339 68.61894745 4.2515564 69.88169861 C4.72210148 73.29661847 4.72210148 73.29661847 8.04653931 75.30201721 C9.02118134 75.86235153 9.99582336 76.42268585 11 77 C11 77.66 11 78.32 11 79 C9.02 79 7.04 79 5 79 C5 78.34 5 77.68 5 77 C3.35 76.67 1.7 76.34 0 76 C-0.33 75.01 -0.66 74.02 -1 73 C-0.01 72.01 -0.01 72.01 1 71 C1.3144276 68.22910273 1.3144276 68.22910273 1.2746582 64.94555664 C1.28419022 63.67406265 1.29372223 62.40256866 1.30354309 61.09254456 C1.30328167 59.69841484 1.30234465 58.30428511 1.30078125 56.91015625 C1.30466688 55.48530451 1.30900127 54.06045393 1.31376648 52.63560486 C1.32123454 49.64708708 1.32093334 46.65868741 1.31567383 43.67016602 C1.30987989 39.83874326 1.32680497 36.00780402 1.3500185 32.17646122 C1.36474504 29.23307972 1.36562902 26.28981493 1.36250877 23.34640312 C1.36302259 21.93379191 1.36827161 20.52117427 1.37832069 19.10859871 C1.3906447 17.13371587 1.38196515 15.1587356 1.37231445 13.18383789 C1.37294388 12.05957901 1.3735733 10.93532013 1.3742218 9.7769928 C1.23942252 6.96285414 1.23942252 6.96285414 -0.52326965 5.11351013 C-1.01059067 4.74605179 -1.49791168 4.37859344 -2 4 C-1.34 2.68 -0.68 1.36 0 0 Z " fill="#D74D42" transform="translate(187,201)"/>
<path d="M0 0 C9.36609416 4.44758661 18.17563712 9.57518676 27 15 C23.45560561 18.82092733 19.08421809 21.13205064 14.625 23.75 C13.77421875 24.26949219 12.9234375 24.78898437 12.046875 25.32421875 C10.80550781 26.05318359 10.80550781 26.05318359 9.5390625 26.796875 C8.78834473 27.24385742 8.03762695 27.69083984 7.26416016 28.15136719 C4.41139339 29.22061641 2.86953955 28.93476971 0 28 C-0.66 27.34 -1.32 26.68 -2 26 C-0.02 26 1.96 26 4 26 C4.33 25.01 4.66 24.02 5 23 C7.0625 22.3125 7.0625 22.3125 9 22 C9 21.34 9 20.68 9 20 C15.75 18 15.75 18 18 18 C18.33 16.35 18.66 14.7 19 13 C18.1028125 13.3403125 18.1028125 13.3403125 17.1875 13.6875 C16.465625 13.790625 15.74375 13.89375 15 14 C13.25 12.6875 13.25 12.6875 12 11 C12 10.34 12 9.68 12 9 C11.01 9 10.02 9 9 9 C7 7 7 7 6 5 C5.34 5 4.68 5 4 5 C4 4.34 4 3.68 4 3 C2.68 2.67 1.36 2.34 0 2 C0 1.34 0 0.68 0 0 Z " fill="#F1744C" transform="translate(267,255)"/>
<path d="M0 0 C0.99 0.495 0.99 0.495 2 1 C2 4.63 2 8.26 2 12 C2.99 12.33 3.98 12.66 5 13 C4.95875 13.78375 4.9175 14.5675 4.875 15.375 C4.71271266 18.16116119 4.71271266 18.16116119 7 20 C7.39764263 21.98821313 7.73775349 23.98944339 8 26 C9.65 25.67 11.3 25.34 13 25 C12.96519531 25.6290625 12.93039063 26.258125 12.89453125 26.90625 C12.59225115 36.46405901 15.40297886 43.30409594 21 51 C21.5465625 51.52980469 22.093125 52.05960937 22.65625 52.60546875 C24 54 24 54 24 56 C24.66 56 25.32 56 26 56 C25.67 56.9<path d="M0 0 C1.02738281 0.54785156 2.05476562 1.09570312 3.11328125 1.66015625 C9.86317262 5.42534343 16.40898466 9.61926621 22 15 C22 15.66 22 16.32 22 17 C22.55300781 17.20496094 23.10601562 17.40992188 23.67578125 17.62109375 C37.90030549 26.06018124 46.13183176 48.29248888 50.125 63.390625 C56.00418935 87.64228106 52.44821226 114.18819475 40.375 135.92578125 C36.19278027 142.77029363 31.26384375 148.95983397 26 155 C25.17242187 155.95519531 25.17242187 155.95519531 24.328125 156.9296875 C9.05928736 173.33234972 -15.41284897 183.79095851 -37.6171875 184.9453125 C-38.40351563 184.96335937 -39.18984375 184.98140625 -40 185 C-40.76570313 185.03867187 -41.53140625 185.07734375 -42.3203125 185.1171875 C-68.33666363 185.8899504 -92.90846801 176.60000605 -112 159 C-112.639375 158.42894531 -113.27875 157.85789062 -113.9375 157.26953125 C-130.67910781 141.53690427 -141.61867332 117.66880017 -142.43359375 94.73046875 C-142.45680342 92.21625262 -142.4576178 89.70174277 -142.4375 87.1875 C-142.43065186 85.86959473 -142.42380371 84.55168945 -142.41674805 83.19384766 C-142.25747273 73.52875873 -141.3420973 65.09006921 -138 56 C-137.42185547 54.40091797 -137.42185547 54.40091797 -136.83203125 52.76953125 C-135.66202189 49.78203162 -134.3807517 46.89551754 -133 44 C-132.58234375 43.11183594 -132.1646875 42.22367188 -131.734375 41.30859375 C-128.83167607 35.5782657 -125.29518377 30.50220615 -121.375 25.4375 C-120.67383057 24.52508545 -120.67383057 24.52508545 -119.95849609 23.59423828 C-117.59040506 20.62127732 -115.63420729 18.30524346 -112 17 C-112 16.34 -112 15.68 -112 15 C-100.92196592 4.34708235 -87.47353085 -2.4159097 -73 -7 C-71.96230469 -7.34160156 -70.92460937 -7.68320313 -69.85546875 -8.03515625 C-47.12894641 -14.18132267 -20.62104515 -11.12416019 0 0 Z M-52.6015625 21.97265625 C-53.71990479 22.61831543 -54.83824707 23.26397461 -55.99047852 23.92919922 C-57.20208475 24.64013066 -58.41358959 25.35123492 -59.625 26.0625 C-60.86924133 26.78482534 -62.11395795 27.50633253 -63.35913086 28.22705078 C-65.9412961 29.7231346 -68.52069393 31.22383649 -71.09814453 32.72802734 C-74.8992416 34.94447442 -78.71155754 37.14099251 -82.52734375 39.33203125 C-89.26799263 43.20487086 -89.26799263 43.20487086 -96.00390625 47.0859375 C-96.89924072 47.6020459 -97.7945752 48.1181543 -98.71704102 48.64990234 C-100.51188064 49.71133568 -102.26500255 50.84333503 -104 52 C-104.53095405 54.97080145 -104.53095405 54.97080145 -104.546875 58.52587891 C-104.56819489 59.19607056 -104.58951477 59.86626221 -104.61148071 60.5567627 C-104.67582926 62.78000975 -104.71565074 65.00265865 -104.75 67.2265625 C-104.76347473 67.98702251 -104.77694946 68.74748253 -104.79083252 69.53098679 C-104.85931475 73.56016247 -104.90726809 77.58903929 -104.94042969 81.61865234 C-104.97912219 85.77029702 -105.09254774 89.91635185 -105.22314453 94.06597328 C-105.30939482 97.26610611 -105.33741103 100.46492786 -105.35021973 103.66611862 C-105.36661754 105.19500503 -105.40495171 106.72382784 -105.46618652 108.25157547 C-105.64725779 113.0604962 -105.56983513 117.38520929 -104 122 C-100.05535677 125.76536896 -95.97253014 127.74583826 -91 130 C-88.89145762 131.20416481 -86.79310265 132.42656063 -84.7109375 133.67578125 C-81.47327053 135.53938074 -78.23102006 137.39475202 -74.98730469 139.24780273 C-69.71791351 142.26313239 -64.47285597 145.29804056 -59.3046875 148.484375 C-58.44439941 149.00733154 -57.58411133 149.53028809 -56.69775391 150.0690918 C-55.10907684 151.03836545 -53.52986899 152.02339921 -51.96240234 153.02661133 C-47.82626531 155.55430722 -47.82626531 155.55430722 -43.1015625 155.63671875 C-38.68835329 153.30783379 -34.3923664 150.83609849 -30.125 148.25 C-28.16713643 147.07734032 -26.20878479 145.90549523 -24.25 144.734375 C-23.23164063 144.12400391 -22.21328125 143.51363281 -21.1640625 142.88476562 C-14.84805574 139.12245296 -8.48163378 135.44598538 -2.12158203 131.75878906 C-1.17653809 131.20932617 -0.23149414 130.65986328 0.7421875 130.09375 C1.97751221 129.37735352 1.97751221 129.37735352 3.23779297 128.64648438 C4.14932129 128.10314453 5.06084961 127.55980469 6 127 C6.67661682 126.74681503 7.35323364 126.49363007 8.050354 126.23277283 C10.62141418 125.08780648 12.13733518 124.12905069 14 122 C15.41913364 116.95327874 15.51922706 111.89764809 15.625 106.69140625 C15.64761902 105.94118635 15.67023804 105.19096645 15.69354248 104.41801262 C15.81332525 100.43998913 15.88721765 96.46426642 15.921875 92.48461914 C15.95693418 89.21202356 16.06750202 85.95636998 16.25 82.6887207 C17.80231875 65.0627336 17.80231875 65.0627336 11.78573608 49.23294067 C6.14741642 44.5516242 -0.20866986 41.76961026 -7.01373291 39.18032837 C-11.03836397 37.58958445 -14.61304059 35.49185516 -18.29296875 33.23828125 C-19.46551914 32.56385415 -20.64058021 31.89376938 -21.81835938 31.22851562 C-25.28998604 29.25421664 -28.76062801 27.27821737 -32.23046875 25.30078125 C-33.72163208 24.45253784 -33.72163208 24.45253784 -35.24291992 23.5871582 C-37.06218346 22.53986942 -38.8534565 21.44217643 -40.6105957 20.29370117 C-45.37725573 17.71287645 -48.30933898 19.47183845 -52.6015625 21.97265625 Z " fill="#FD603F" transform="translate(295,152)"/>
<path d="M0 0 C3.4769734 0.64187833 6.06358802 1.38831573 9.1015625 3.21484375 C9.83890625 3.65376953 10.57625 4.09269531 11.3359375 4.54492188 C12.09132813 5.00447266 12.84671875 5.46402344 13.625 5.9375 C14.388125 6.39318359 15.15125 6.84886719 15.9375 7.31835938 C19.00400419 9.15557197 22.02487912 11.01658608 25 13 C25.14672852 15.08789062 25.14672852 15.08789062 24.87890625 17.65625 C24.276543 26.44536095 24.276543 26.44536095 26 35 C30.82975435 40.40335316 37.37775099 42.31405285 44 45 C44 54.9 44 64.8 44 75 C34.9139616 70.66348167 26.19494319 65.89069441 17.5 60.8125 C16.46166016 60.20647949 15.42332031 59.60045898 14.35351562 58.97607422 C11.55828515 57.33312808 8.76600516 55.69171757 6 54 C4.91187012 53.50749756 3.82374023 53.01499512 2.70263672 52.50756836 C-0.41235763 49.61740513 -0.43706622 49.01851536 -0.68115234 44.95605469 C-0.68020363 42.86108791 -0.64637244 40.7659701 -0.5859375 38.671875 C-0.57744781 37.56773254 -0.56895813 36.46359009 -0.56021118 35.32598877 C-0.52662627 31.7996663 -0.45133107 28.27563116 -0.375 24.75 C-0.34490727 22.35940802 -0.31753028 19.9687802 -0.29296875 17.578125 C-0.22681826 11.71796969 -0.12641725 5.85914823 0 0 Z " fill="#FC6D43" transform="translate(255,186)"/>
<path d="M0 0 C0 17.16 0 34.32 0 52 C-3.774375 54.10375 -7.54875 56.2075 -11.4375 58.375 C-20.04789067 63.18006634 -28.61445556 68.04121058 -37.04663086 73.15380859 C-41.79048446 76 -41.79048446 76 -44 76 C-46.30806808 55.90008061 -46.30806808 55.90008061 -44 47 C-40.88631347 43.26705029 -36.85851157 41.8092095 -32.45996094 39.98046875 C-29.9715253 38.83180921 -28.00812866 37.8721108 -26 36 C-25.11725677 32.3574422 -25.52264796 28.89288947 -25.875 25.1875 C-26.22661673 21.18258208 -26.3583627 17.82048326 -25 14 C-19.90026745 8.7675406 -7.6659588 0 0 0 Z " fill="#FB553C" transform="translate(245,185)"/>
<path d="M0 0 C1.92979674 1.23570742 3.8022162 2.53102744 5.67089844 3.85742188 C10.47202398 7.11453765 15.59270296 9.86929587 20.625 12.75 C22.68162046 13.95112348 24.73641546 15.15537999 26.7890625 16.36328125 C27.67287598 16.88317627 28.55668945 17.40307129 29.46728516 17.9387207 C31.98433589 19.42823048 34.49371492 20.92995799 37 22.4375 C33.45560561 26.25842733 29.08421809 28.56955064 24.625 31.1875 C23.77421875 31.70699219 22.9234375 32.22648437 22.046875 32.76171875 C20.80550781 33.49068359 20.80550781 33.49068359 19.5390625 34.234375 C18.41298584 34.90484863 18.41298584 34.90484863 17.26416016 35.58886719 C14.3858032 36.6677079 12.90774673 36.3519422 10 35.4375 C8.05883789 34.46606445 8.05883789 34.46606445 6.22265625 33.30078125 C5.54396484 32.88892578 4.86527344 32.47707031 4.16601562 32.05273438 C2.76121244 31.18272163 1.36272393 30.3024308 -0.02929688 29.41210938 C-4.25699225 26.84067488 -4.25699225 26.84067488 -9.09765625 26.90625 C-13.54182212 29.25095124 -17.6297267 32.03342136 -21.78125 34.85546875 C-25.71688776 36.78985381 -26.86865416 36.83471915 -31 35.4375 C-34.38892466 33.73825936 -37.62978773 31.83239083 -40.875 29.875 C-41.75414062 29.35486328 -42.63328125 28.83472656 -43.5390625 28.29882812 C-45.6978235 27.01999688 -47.85107726 25.73277161 -50 24.4375 C-48.70140649 20.54171946 -47.30831476 20.17644857 -43.77734375 18.1796875 C-42.6891333 17.55715088 -41.60092285 16.93461426 -40.47973633 16.29321289 C-39.29982798 15.63148046 -38.11906446 14.97127079 -36.9375 14.3125 C-34.54348165 12.97666438 -32.15001141 11.63987296 -29.7578125 10.30078125 C-29.16795059 9.97192429 -28.57808868 9.64306732 -27.97035217 9.304245 C-24.60488103 7.40892994 -21.39309846 5.40015511 -18.2421875 3.16796875 C-11.83496041 -1.28691768 -7.58720365 -3.88143604 0 0 Z " fill="#FB6140" transform="translate(257,247.5625)"/>
<path d="M0 0 C15.34628433 2.76736275 30.76869456 11.19111091 42 22 C42 22.66 42 23.32 42 24 C42.55300781 24.20496094 43.10601562 24.40992188 43.67578125 24.62109375 C46.88407572 26.52450206 48.92681465 29.16041461 51.1875 32.0625 C51.66582275 32.67593262 52.14414551 33.28936523 52.63696289 33.92138672 C60.6587194 44.5434639 70 59.3659123 70 73 C69.34 73 68.68 73 68 73 C67.67 73.66 67.34 74.32 67 75 C67.33 72.69 67.66 70.38 68 68 C66.02 67.67 64.04 67.34 62 67 C62 66.01 62 65.02 62 64 C62.99 64 63.98 64 65 64 C64.01 61.525 64.01 61.525 63 59 C63 59.99 63 60.98 63 62 C62.34 62 61.68 62 61 62 C61.03480469 61.41992188 61.06960938 60.83984375 61.10546875 60.2421875 C61.28530278 55.05269113 61.02914409 51.43553242 58 47 C55.94906855 45.59533047 55.94906855 45.59533047 54 45 C54.33 43.35 54.66 41.7 55 40 C52.03 39.67 49.06 39.34 46 39 C45.45627049 35.94152152 45 33.11227195 45 30 C44.01 30 43.02 30 42 30 C41.505 29.01 41.505 29.01 41 28 C40.34 28.99 39.68 29.98 39 31 C37.68 30.67 36.36 30.34 35 30 C35.639375 29.773125 36.27875 29.54625 36.9375 29.3125 C39.27193661 28.14749104 39.27193661 28.14749104 39.75 25.375 C39.8325 24.59125 39.915 23.8075 40 23 C38.35 23 36.7 23 35 23 C34.34 21.68 33.68 20.36 33 19 C32.34 19 31.68 19 31 19 C31 18.34 31 17.68 31 17 C30.34 17 29.68 17 29 17 C27.62689293 15.70766393 26.28965176 14.37562854 25 13 C24.01 13.33 23.02 13.66 22 14 C22 14.33 22 14.66 22 15 C20.35 15 18.7 15 17 15 C17 14.34 17 13.68 17 13 C16.34 13 15.68 13 15 13 C15.33 11.68 15.66 10.36 16 9 C15.01 8.67 14.02 8.34 13 8 C11.5459375 7.1646875 11.5459375 7.1646875 10.0625 6.3125 C9.051875 5.879375 8.04125 5.44625 7 5 C4.91666667 5.83333333 4.91666667 5.83333333 3 7 C0.25 6.625 0.25 6.625 -2 6 C-1.33333333 4 -0.66666667 2 0 0 Z " fill="#EA8458" transform="translate(275,145)"/>
<path d="M0 0 C2.97 0.495 2.97 0.495 6 1 C6 1.66 6 2.32 6 3 C5.01 3.66 4.02 4.32 3 5 C6.3340947 7.19097652 9.04179141 8.43454163 13 9 C13.80693075 13.25875373 14.13514127 17.29656576 14.16113281 21.62866211 C14.17074036 22.92698471 14.1803479 24.22530731 14.19024658 25.56297302 C14.19509442 26.96776146 14.19937328 28.37255196 14.203125 29.77734375 C14.20595238 30.49125338 14.20877975 31.205163 14.21169281 31.94070625 C14.22663219 35.71592701 14.23589581 39.49111005 14.24023438 43.26635742 C14.24572309 47.15104446 14.26977428 51.03538175 14.29820633 54.91995907 C14.31688743 57.92180882 14.32204112 60.92357502 14.32357025 63.92547798 C14.32658304 65.3571216 14.33456484 66.78876424 14.34775543 68.22035027 C14.46556773 81.9844378 14.46556773 81.9844378 11 88 C9.35 88 7.7 88 6 88 C6 88.66 6 89.32 6 90 C5.01 90 4.02 90 3 90 C3 90.66 3 91.32 3 92 C3.99 92.33 4.98 92.66 6 93 C5.67 93.99 5.34 94.98 5 96 C4.67 95.67 4.34 95.34 4 95 C2.15400312 94.60545777 0.29774178 94.25823134 -1.5625 93.9375 C-2.57441406 93.76089844 -3.58632813 93.58429688 -4.62890625 93.40234375 C-5.41136719 93.26957031 -6.19382812 93.13679688 -7 93 C-4 90 -4 90 10 82 C10 58.9 10 35.8 10 12 C3.07 8.04 3.07 8.04 -4 4 C-2.68 3.67 -1.36 3.34 0 3 C0 2.01 0 1.02 0 0 Z " fill="#E38158" transform="translate(298,192)"/>
<path d="M0 0 C0.99 0.33 1.98 0.66 3 1 C2.34 1.33 1.68 1.66 1 2 C1 2.66 1 3.32 1 4 C-0.65 4.33 -2.3 4.66 -4 5 C-4.33 5.99 -4.66 6.98 -5 8 C-7.0625 8.6875 -7.0625 8.6875 -9 9 C-9 9.99 -9 10.98 -9 12 C-9.639375 12.61875 -10.27875 13.2375 -10.9375 13.875 C-13.32856776 16.33852436 -13.74635747 17.6180996 -14 21 C-13.63143136 23.23167185 -13.63143136 23.23167185 -13 25 C-15.375 26.5625 -15.375 26.5625 -18 28 C-18.66 27.67 -19.32 27.34 -20 27 C-20.99 27.66 -21.98 28.32 -23 29 C-22.34 30.65 -21.68 32.3 -21 34 C-22.1446875 34.5878125 -22.1446875 34.5878125 -23.3125 35.1875 C-28.3803181 38.60533081 -29.56442826 43.12230507 -30.73046875 48.8671875 C-31.0568854 51.45013666 -30.59707402 53.47902082 -30 56 C-30.26871451 58.34165499 -30.59038404 60.67884289 -31 63 C-30.34 63.33 -29.68 63.66 -29 64 C-29.99 64.99 -29.99 64.99 -31 66 C-31.680625 66.70125 -32.36125 67.4025 -33.0625 68.125 C-35 70 -35 70 -36 70 C-37.13541827 56.87961114 -32.5794032 43.70033672 -27 32 C-26.37351563 30.66775391 -26.37351563 30.66775391 -25.734375 29.30859375 C-22.83167607 23.5782657 -19.29518377 18.50220615 -15.375 13.4375 C-14.67383057 12.52508545 -14.67383057 12.52508545 -13.95849609 11.59423828 C-11.59040506 8.62127732 -9.63420729 6.30524346 -6 5 C-6 4.34 -6 3.68 -6 3 C-5.195625 2.690625 -4.39125 2.38125 -3.5625 2.0625 C-1.10919595 1.23664655 -1.10919595 1.23664655 0 0 Z " fill="#E6413D" transform="translate(189,164)"/>
<path d="M0 0 C1.6014727 22.02024965 -10.10384392 43.25052652 -23.828125 59.5078125 C-24.54484375 60.33023438 -25.2615625 61.15265625 -26 62 C-26.55171875 62.63679688 -27.1034375 63.27359375 -27.671875 63.9296875 C-32.92882132 69.57700112 -39.45756635 73.96473673 -46 78 C-46.66 78 -47.32 78 -48 78 C-48 77.01 -48 76.02 -48 75 C-47.401875 74.95875 -46.80375 74.9175 -46.1875 74.875 C-43.68320504 74.16831574 -43.68320504 74.16831574 -42.75 71.1875 C-40.62007875 67.30800058 -38.83283175 66.61619119 -34.83984375 65.0546875 C-32.5375803 63.73491864 -31.97026286 62.42314351 -31 60 C-29.515 60.495 -29.515 60.495 -28 61 C-28 60.34 -28 59.68 -28 59 C-27.34 59 -26.68 59 -26 59 C-25.34 57.35 -24.68 55.7 -24 54 C-23.01 54 -22.02 54 -21 54 C-21 53.01 -21 52.02 -21 51 C-20.01 50.505 -20.01 50.505 -19 50 C-18.34444881 47.47266765 -18.34444881 47.47266765 -18 45 C-17.34 45 -16.68 45 -16 45 C-16 44.34 -16 43.68 -16 43 C-16.66 42.67 -17.32 42.34 -18 42 C-16.02 41.505 -16.02 41.505 -14 41 C-14 40.34 -14 39.68 -14 39 C-13.34 39 -12.68 39 -12 39 C-10.48046291 34.08417923 -10.48046291 34.08417923 -10 29 C-9.7215625 27.2365625 -9.7215625 27.2365625 -9.4375 25.4375 C-8.69466488 22.14687006 -8.69466488 22.14687006 -10 20 C-8.35 19.67 -6.7 19.34 -5 19 C-3.3722167 12.85221129 -2.79809911 7.35987804 -3 1 C-1 0 -1 0 0 0 Z " fill="#F28E57" transform="translate(347,245)"/>
<path d="M0 0 C2.97 0 5.94 0 9 0 C8.35132965 0.35675308 7.7026593 0.71350616 7.03433228 1.08106995 C4.71190009 2.88807925 4.71190009 2.88807925 4.47860718 5.99131775 C4.4693924 7.21613358 4.46017761 8.4409494 4.45068359 9.70288086 C4.44046173 10.37964371 4.43023987 11.05640656 4.41970825 11.75367737 C4.39190483 13.99109253 4.39382954 16.22727637 4.3984375 18.46484375 C4.39066395 20.02039549 4.38199468 21.575943 4.37246704 23.13148499 C4.35754033 26.39240273 4.35812599 29.65288744 4.36865234 32.91381836 C4.38024232 37.0920047 4.34638654 41.26841792 4.299963 45.446311 C4.27049084 48.65916803 4.26874414 51.87159786 4.27498245 55.08456612 C4.27395581 56.62476679 4.26347553 58.16499132 4.24335861 59.70506096 C4.21866023 61.86045161 4.23217807 64.0123888 4.25537109 66.16772461 C4.25411224 67.39333603 4.25285339 68.61894745 4.2515564 69.88169861 C4.72210148 73.29661847 4.72210148 73.29661847 8.04653931 75.30201721 C9.02118134 75.86235153 9.99582336 76.42268585 11 77 C11 77.66 11 78.32 11 79 C9.02 79 7.04 79 5 79 C5 78.34 5 77.68 5 77 C3.35 76.67 1.7 76.34 0 76 C-0.33 75.01 -0.66 74.02 -1 73 C-0.01 72.01 -0.01 72.01 1 71 C1.3144276 68.22910273 1.3144276 68.22910273 1.2746582 64.94555664 C1.28419022 63.67406265 1.29372223 62.40256866 1.30354309 61.09254456 C1.30328167 59.69841484 1.30234465 58.30428511 1.30078125 56.91015625 C1.30466688 55.48530451 1.30900127 54.06045393 1.31376648 52.63560486 C1.32123454 49.64708708 1.32093334 46.65868741 1.31567383 43.67016602 C1.30987989 39.83874326 1.32680497 36.00780402 1.3500185 32.17646122 C1.36474504 29.23307972 1.36562902 26.28981493 1.36250877 23.34640312 C1.36302259 21.93379191 1.36827161 20.52117427 1.37832069 19.10859871 C1.3906447 17.13371587 1.38196515 15.1587356 1.37231445 13.18383789 C1.37294388 12.05957901 1.3735733 10.93532013 1.3742218 9.7769928 C1.23942252 6.96285414 1.23942252 6.96285414 -0.52326965 5.11351013 C-1.01059067 4.74605179 -1.49791168 4.37859344 -2 4 C-1.34 2.68 -0.68 1.36 0 0 Z " fill="#D74D42" transform="translate(187,201)"/>
<path d="M0 0 C9.36609416 4.44758661 18.17563712 9.57518676 27 15 C23.45560561 18.82092733 19.08421809 21.13205064 14.625 23.75 C13.77421875 24.26949219 12.9234375 24.78898437 12.046875 25.32421875 C10.80550781 26.05318359 10.80550781 26.05318359 9.5390625 26.796875 C8.78834473 27.24385742 8.03762695 27.69083984 7.26416016 28.15136719 C4.41139339 29.22061641 2.86953955 28.93476971 0 28 C-0.66 27.34 -1.32 26.68 -2 26 C-0.02 26 1.96 26 4 26 C4.33 25.01 4.66 24.02 5 23 C7.0625 22.3125 7.0625 22.3125 9 22 C9 21.34 9 20.68 9 20 C15.75 18 15.75 18 18 18 C18.33 16.35 18.66 14.7 19 13 C18.1028125 13.3403125 18.1028125 13.3403125 17.1875 13.6875 C16.465625 13.790625 15.74375 13.89375 15 14 C13.25 12.6875 13.25 12.6875 12 11 C12 10.34 12 9.68 12 9 C11.01 9 10.02 9 9 9 C7 7 7 7 6 5 C5.34 5 4.68 5 4 5 C4 4.34 4 3.68 4 3 C2.68 2.67 1.36 2.34 0 2 C0 1.34 0 0.68 0 0 Z " fill="#F1744C" transform="translate(267,255)"/>
<path d="M0 0 C0.99 0.495 0.99 0.495 2 1 C2 4.63 2 8.26 2 12 C2.99 12.33 3.98 12.66 5 13 C4.95875 13.78375 4.9175 14.5675 4.875 15.375 C4.71271266 18.16116119 4.71271266 18.16116119 7 20 C7.39764263 21.98821313 7.73775349 23.98944339 8 26 C9.65 25.67 11.3 25.34 13 25 C12.96519531 25.6290625 12.93039063 26.258125 12.89453125 26.90625 C12.59225115 36.46405901 15.40297886 43.30409594 21 51 C21.5465625 51.52980469 22.093125 52.05960937 22.65625 52.60546875 C24 54 24 54 24 56 C24.66 56 25.32 56 26 56 C25.67 56.99 25.34 57.98 25 59 C11.78919483 42.5197199 -1.54575968 22.15588871 0 0 Z " fill="#E3413F" transform="translate(153,247)"/>
<path d="M0 0 C10.12708386 9.4062324 16.10409395 23.94345 20 37 C20 38.32 20 39.64 20 41 C19.34 41 18.68 41 18 41 C17.67 41.66 17.34 42.32 17 43 C17.33 40.69 17.66 38.38 18 36 C16.02 35.67 14.04 35.34 12 35 C12 34.01 12 33.02 12 32 C12.99 32 13.98 32 15 32 C14.34 30.35 13.68 28.7 13 27 C13 27.99 13 28.98 13 30 C12.34 30 11.68 30 11 30 C11.03480469 29.41992188 11.06960938 28.83984375 11.10546875 28.2421875 C11.28530278 23.05269113 11.02914409 19.43553242 8 15 C5.94906855 13.59533047 5.94906855 13.59533047 4 13 C4.33 11.35 4.66 9.7 5 8 C2.69 7.67 0.38 7.34 -2 7 C-2 5.35 -2 3.7 -2 2 C-1.34 2 -0.68 2 0 2 C0 1.34 0 0.68 0 0 Z " fill="#F28F57" transform="translate(325,177)"/>
<path d="M0 0 C4.50871015 0.72968904 7.28474359 2.32155933 11 5 C10.01 5.495 10.01 5.495 9 6 C5.535 4.02 5.535 4.02 2 2 C2 17.84 2 33.68 2 50 C3.98 50.66 5.96 51.32 8 52 C8 52.66 8 53.32 8 54 C2.25 52.25 2.25 52.25 0 50 C-0.24050903 47.86129761 -0.24050903 47.86129761 -0.22705078 45.18310547 C-0.22689972 44.18221893 -0.22674866 43.1813324 -0.22659302 42.15011597 C-0.21627045 41.06674957 -0.20594788 39.98338318 -0.1953125 38.8671875 C-0.1924826 37.76021515 -0.18965271 36.6532428 -0.18673706 35.51272583 C-0.17551519 31.96670863 -0.15040691 28.42094125 -0.125 24.875 C-0.1149728 22.47526406 -0.1058465 20.07552417 -0.09765625 17.67578125 C-0.07556932 11.78376849 -0.04207207 5.89190209 0 0 Z " fill="#DA6C50" transform="translate(255,186)"/>
<path d="M0 0 C8.34044821 1.50401525 15.91501788 4.27667859 23 9 C23 9.66 23 10.32 23 11 C23.66 11.33 24.32 11.66 25 12 C24.01 12.66 23.02 13.32 22 14 C22 14.33 22 14.66 22 15 C20.35 15 18.7 15 17 15 C17 14.34 17 13.68 17 13 C16.34 13 15.68 13 15 13 C15.33 11.68 15.66 10.36 16 9 C15.01 8.67 14.02 8.34 13 8 C11.5459375 7.1646875 11.5459375 7.1646875 10.0625 6.3125 C9.051875 5.879375 8.04125 5.44625 7 5 C4.91666667 5.83333333 4.91666667 5.83333333 3 7 C0.25 6.625 0.25 6.625 -2 6 C-1.33333333 4 -0.66666667 2 0 0 Z " fill="#F67547" transform="translate(275,145)"/>
<path d="M0 0 C0.66 0.33 1.32 0.66 2 1 C-1.8819473 9.00651631 -10.43267903 14.71394476 -18 19 C-18.66 19 -19.32 19 -20 19 C-20 18.01 -20 17.02 -20 16 C-19.1028125 15.938125 -19.1028125 15.938125 -18.1875 15.875 C-15.68320504 15.16831574 -15.68320504 15.16831574 -14.75 12.1875 C-12.62007875 8.30800058 -10.83283175 7.61619119 -6.83984375 6.0546875 C-4.5375803 4.73491864 -3.97026286 3.42314351 -3 1 C-2.01 1.33 -1.02 1.66 0 2 C0 1.34 0 0.68 0 0 Z " fill="#F28352" transform="translate(319,304)"/>
<path d="M0 0 C5.875 1.875 5.875 1.875 7 3 C6.93808404 4.52192815 6.8221685 6.04172332 6.68359375 7.55859375 C5.75039063 17.95236655 5.75039063 17.95236655 9.80957031 27.01904297 C14.72205158 30.63602972 20.25947256 33.0045608 26 35 C26 37.64 26 40.28 26 43 C25.34 42.67 24.68 42.34 24 42 C24 40.02 24 38.04 24 36 C23.01 36 22.02 36 21 36 C20.67 35.34 20.34 34.68 20 34 C18.845 33.690625 17.69 33.38125 16.5 33.0625 C15.345 32.711875 14.19 32.36125 13 32 C12.67 31.01 12.34 30.02 12 29 C11.01 29 10.02 29 9 29 C9 28.34 9 27.68 9 27 C8.01 26.67 7.02 26.34 6 26 C5.99589111 25.34926514 5.99178223 24.69853027 5.98754883 24.02807617 C5.95465827 21.08029254 5.88402238 18.13458866 5.8125 15.1875 C5.80669922 14.16333984 5.80089844 13.13917969 5.79492188 12.08398438 C5.7127473 9.29917924 5.59768549 6.72214907 5 4 C2.64046681 1.76970589 2.64046681 1.76970589 0 1 C0 0.67 0 0.34 0 0 Z " fill="#E77A56" transform="translate(273,196)"/>
<path d="M0 0 C4.02992782 0.55312735 8.02022924 1.1558062 12 2 C11.67 4.31 11.34 6.62 11 9 C11.598125 9.12375 12.19625 9.2475 12.8125 9.375 C15 10 15 10 18 12 C18 12.66 18 13.32 18 14 C14.10508136 12.5810861 10.79470749 10.74229459 7.3125 8.5 C6.35988281 7.8915625 5.40726563 7.283125 4.42578125 6.65625 C2 5 2 5 0 3 C0 2.01 0 1.02 0 0 Z " fill="#F3493C" transform="translate(188,312)"/>
<path d="M0 0 C0.99 0 1.98 0 3 0 C3 0.66 3 1.32 3 2 C6.72430357 2.69289369 10.21083746 3.11144596 14 3 C14 2.34 14 1.68 14 1 C15.875 0.375 15.875 0.375 18 0 C18.66 0.66 19.32 1.32 20 2 C17.43848317 2.81571218 14.87587372 3.62766131 12.3125 4.4375 C11.2306543 4.78264648 11.2306543 4.78264648 10.12695312 5.13476562 C4.57098432 6.88527634 -0.44171844 8.14077709 -6.3125 8.0625 C-7.19550781 8.05347656 -8.07851563 8.04445313 -8.98828125 8.03515625 C-9.65214844 8.02355469 -10.31601562 8.01195312 -11 8 C-11 7.67 -11 7.34 -11 7 C-7.7 6.34 -4.4 5.68 -1 5 C-1 3.68 -1 2.36 -1 1 C-0.67 0.67 -0.34 0.34 0 0 Z " fill="#F16E4B" transform="translate(267,328)"/>
<path d="M0 0 C0.86625 0.3403125 0.86625 0.3403125 1.75 0.6875 C1.75 1.3475 1.75 2.0075 1.75 2.6875 C2.74 2.6875 3.73 2.6875 4.75 2.6875 C5.41 4.3375 6.07 5.9875 6.75 7.6875 C7.41 7.6875 8.07 7.6875 8.75 7.6875 C8.75 8.3475 8.75 9.0075 8.75 9.6875 C11.225 10.1825 11.225 10.1825 13.75 10.6875 C13.75 11.3475 13.75 12.0075 13.75 12.6875 C16.225 13.1825 16.225 13.1825 18.75 13.6875 C19.08 14.6775 19.41 15.6675 19.75 16.6875 C16.194218 15.34538025 12.95894833 13.76505303 9.66796875 11.8671875 C8.73662109 11.33222656 7.80527344 10.79726562 6.84570312 10.24609375 C5.88599609 9.69050781 4.92628906 9.13492188 3.9375 8.5625 C2.95845703 7.99917969 1.97941406 7.43585938 0.97070312 6.85546875 C-1.43789555 5.46905585 -3.84471395 4.07964945 -6.25 2.6875 C-2.53125 -0.3515625 -2.53125 -0.3515625 0 0 Z " fill="#EB754F" transform="translate(274.25,178.3125)"/>
<path d="M0 0 C-2.22189824 2.22189824 -4.08482708 2.92598892 -7 4 C-7.33 6.31 -7.66 8.62 -8 11 C-8.721875 10.814375 -9.44375 10.62875 -10.1875 10.4375 C-13.12826973 9.98004693 -15.14103058 10.26483643 -18 11 C-18 10.34 -18 9.68 -18 9 C-18.66 8.67 -19.32 8.34 -20 8 C-4.11573237 -2.05786618 -4.11573237 -2.05786618 0 0 Z " fill="#FC4B39" transform="translate(216,149)"/>
<path d="M0 0 C0 6.93 0 13.86 0 21 C-0.33 21 -0.66 21 -1 21 C-1.28875 20.113125 -1.5775 19.22625 -1.875 18.3125 C-2.83148748 15.49617576 -3.86798946 12.74916844 -5 10 C-4.34 9.67 -3.68 9.34 -3 9 C-3.33 8.01 -3.66 7.02 -4 6 C-6.31 6.33 -8.62 6.66 -11 7 C-8.69714115 4.2907543 -3.67024802 0 0 0 Z " fill="#F46443" transform="translate(245,185)"/>
<path d="M0 0 C0.66 0.33 1.32 0.66 2 1 C2.08912219 4.83225427 1.87867729 8.26562152 1 12 C1.66 12.33 2.32 12.66 3 13 C2.34 13.66 1.68 14.32 1 15 C-0.0209375 16.051875 -0.0209375 16.051875 -1.0625 17.125 C-3 19 -3 19 -4 19 C-4.25715556 11.77107145 -4.13657964 6.20486947 0 0 Z " fill="#EF3738" transform="translate(157,215)"/>
<path d="M0 0 C-0.33 0.99 -0.66 1.98 -1 3 C-1.66 3 -2.32 3 -3 3 C-3 3.66 -3 4.32 -3 5 C-3.99 5 -4.98 5 -6 5 C-6 5.66 -6 6.32 -6 7 C-5.01 7.33 -4.02 7.66 -3 8 C-3.33 8.99 -3.66 9.98 -4 11 C-4.33 10.67 -4.66 10.34 -5 10 C-6.84599688 9.60545777 -8.70225822 9.25823134 -10.5625 8.9375 C-12.08037109 8.67259766 -12.08037109 8.67259766 -13.62890625 8.40234375 C-14.41136719 8.26957031 -15.19382812 8.13679688 -16 8 C-11.81206458 3.54474956 -6.27130654 0 0 0 Z " fill="#FC7A48" transform="translate(307,277)"/>
<path d="M0 0 C-0.5625 1.875 -0.5625 1.875 -2 4 C-5.625 5.25 -5.625 5.25 -9 6 C-9 6.99 -9 7.98 -9 9 C-13.5656849 12.04378993 -18.64705129 13.0267366 -24 14 C-21.76118156 11.56952479 -19.47483712 9.95575471 -16.62109375 8.30078125 C-15.78255859 7.81416016 -14.94402344 7.32753906 -14.08007812 6.82617188 C-13.20802734 6.32666016 -12.33597656 5.82714844 -11.4375 5.3125 C-10.56158203 4.80138672 -9.68566406 4.29027344 -8.78320312 3.76367188 C-2.25582026 0 -2.25582026 0 0 0 Z " fill="#E85F4C" transform="translate(241,251)"/>
<path d="M0 0 C0.45411363 6.2440624 -0.43862427 11.70492865 -1.875 17.75 C-2.04870117 18.48275146 -2.22240234 19.21550293 -2.40136719 19.97045898 C-3.34321115 23.78353429 -4.4221655 27.38945979 -6 31 C-6.33 31 -6.66 31 -7 31 C-7.05399736 29.54207116 -7.09279177 28.08357288 -7.125 26.625 C-7.15980469 25.40683594 -7.15980469 25.40683594 -7.1953125 24.1640625 C-7 22 -7 22 -5 20 C-3.07792791 13.72360412 -2.78986435 7.5142053 -3 1 C-1 0 -1 0 0 0 Z " fill="#EC9360" transform="translate(347,245)"/>
<path d="M0 0 C2.16045628 3.24068442 2.15112903 4.33758071 1.8125 8.0625 C1 10 1 10 -1.3125 11.25 C-4 12 -4 12 -8 12 C-7.8125 9.6875 -7.8125 9.6875 -7 7 C-5.36368108 5.95107762 -3.69514137 4.95093297 -2 4 C-0.67206394 1.93299345 -0.67206394 1.93299345 0 0 Z " fill="#F83B34" transform="translate(174,180)"/>
<path d="M0 0 C3.61260785 0.30105065 4.74509577 0.70868088 7.1875 3.5 C8.0846875 4.7375 8.0846875 4.7375 9 6 C9.66 6.33 10.32 6.66 11 7 C10.39816251 9.02045442 9.72693904 11.02111039 9 13 C8.01 13.495 8.01 13.495 7 14 C6.45627049 10.94152152 6 8.11227195 6 5 C5.01 5 4.02 5 3 5 C2.67 4.34 2.34 3.68 2 3 C1.01 4.485 1.01 4.485 0 6 C-1.32 5.67 -2.64 5.34 -4 5 C-2.68 4.34 -1.36 3.68 0 3 C0 2.01 0 1.02 0 0 Z " fill="#FC8348" transform="translate(314,170)"/>
<path d="M0 0 C0.33 0.66 0.66 1.32 1 2 C2.65 2 4.3 2 6 2 C6.33 2.66 6.66 3.32 7 4 C5.37750059 4.83819158 3.75191503 5.6704116 2.125 6.5 C0.76761719 7.19609375 0.76761719 7.19609375 -0.6171875 7.90625 C-3 9 -3 9 -5 9 C-4.75 5.625 -4.75 5.625 -4 2 C-1.9375 0.5625 -1.9375 0.5625 0 0 Z " fill="#F4784B" transform="translate(292,320)"/>
<path d="M0 0 C0.556875 0.309375 1.11375 0.61875 1.6875 0.9375 C4.12540433 2.05761821 6.36224186 2.56037364 9 3 C9.33 4.65 9.66 6.3 10 8 C7 9 7 9 4.51953125 7.78515625 C3.62621094 7.21667969 2.73289063 6.64820313 1.8125 6.0625 C0.91144531 5.49660156 0.01039063 4.93070312 -0.91796875 4.34765625 C-1.60503906 3.90292969 -2.29210937 3.45820313 -3 3 C-2.01 2.67 -1.02 2.34 0 2 C0 1.34 0 0.68 0 0 Z " fill="#F7543E" transform="translate(214,271)"/>
<path d="M0 0 C0.66 0.33 1.32 0.66 2 1 C2 1.99 2 2.98 2 4 C1.113125 4.4125 0.22625 4.825 -0.6875 5.25 C-4.03541747 6.86281623 -4.03541747 6.86281623 -6.625 9.25 C-9 11 -9 11 -11.3125 10.75 C-11.869375 10.5025 -12.42625 10.255 -13 10 C-13 9.34 -13 8.68 -13 8 C-10.90043111 6.50073038 -8.8271391 5.14353977 -6.625 3.8125 C-6.02171875 3.43158203 -5.4184375 3.05066406 -4.796875 2.65820312 C-3.23780048 1.70370306 -1.62150526 0.84409978 0 0 Z " fill="#ED5145" transform="translate(214,224)"/>
<path d="M0 0 C0.33 0 0.66 0 1 0 C1 9.9 1 19.8 1 30 C-0.65 30.66 -2.3 31.32 -4 32 C-3.77183594 31.40832031 -3.54367188 30.81664062 -3.30859375 30.20703125 C-1.0423002 24.21347039 -1.0423002 24.21347039 -2 18 C-1.34 18 -0.68 18 0 18 C0 12.06 0 6.12 0 0 Z " fill="#FB6644" transform="translate(244,207)"/>
<path d="M0 0 C0 0.99 0 1.98 0 3 C-6.15131579 8.87171053 -6.15131579 8.87171053 -10 9 C-11.34888048 8.36537911 -12.68459036 7.70136987 -14 7 C-12.04480616 5.82807953 -10.0857461 4.6626071 -8.125 3.5 C-7.03445313 2.8503125 -5.94390625 2.200625 -4.8203125 1.53125 C-2 0 -2 0 0 0 Z " fill="#EF764D" transform="translate(291,285)"/>
<path d="M0 0 C0.66 0 1.32 0 2 0 C3.17700048 4.62459244 3.11408412 9.07866462 3.0625 13.8125 C3.05798828 14.60076172 3.05347656 15.38902344 3.04882812 16.20117188 C3.03711312 18.13414761 3.01917998 20.06708393 3 22 C2.67 22 2.34 22 2 22 C1.855625 21.2575 1.71125 20.515 1.5625 19.75 C1.07481127 17.14902409 1.07481127 17.14902409 0.46875 15.25 C-0.16205615 12.22213049 -0.09339497 9.3394966 -0.0625 6.25 C-0.05347656 5.07953125 -0.04445313 3.9090625 -0.03515625 2.703125 C-0.02355469 1.81109375 -0.01195312 0.9190625 0 0 Z " fill="#F2925B" transform="translate(344,219)"/>
<path d="M0 0 C3 1 3 1 3.9375 2.625 C4.288125 3.40875 4.63875 4.1925 5 5 C7.00255505 8.78931754 8.87239936 12.02877939 12 15 C12 15.66 12 16.32 12 17 C12.66 17 13.32 17 14 17 C13.67 17.99 13.34 18.98 13 20 C11.39245904 17.94005539 9.7889195 15.87719524 8.1875 13.8125 C7.73568359 13.23435547 7.28386719 12.65621094 6.81835938 12.06054688 C0 3.25142564 0 3.25142564 0 0 Z " fill="#E04945" transform="translate(165,286)"/>
<path d="M0 0 C0.66 0.33 1.32 0.66 2 1 C-0.11552095 3.93858077 -2.23045521 6.65283752 -5 9 C-8.9375 9 -8.9375 9 -12 8 C-8.20182235 4.77730382 -4.42608146 2.25479622 0 0 Z " fill="#EE6F4A" transform="translate(275,293)"/>
<path d="M0 0 C0.66 0.33 1.32 0.66 2 1 C0.37965717 3.14949538 -1.24595794 5.2946141 -2.875 7.4375 C-3.33519531 8.04916016 -3.79539062 8.66082031 -4.26953125 9.29101562 C-7.7734375 13.88671875 -7.7734375 13.88671875 -10 15 C-9.34 12.69 -8.68 10.38 -8 8 C-6.68 7.67 -5.36 7.34 -4 7 C-4 6.01 -4 5.02 -4 4 C-2 1.8125 -2 1.8125 0 0 Z " fill="#E88D5E" transform="translate(330,292)"/>
<path d="M0 0 C1.16147142 3.48441426 1 6.34133115 1 10 C1.42854995 12.31036915 1.42854995 12.31036915 2 14 C1.34 14 0.68 14 0 14 C-0.67354499 12.56570999 -1.33859701 11.12742943 -2 9.6875 C-2.37125 8.88699219 -2.7425 8.08648437 -3.125 7.26171875 C-4 5 -4 5 -4 2 C-2.68 1.34 -1.36 0.68 0 0 Z " fill="#FA3634" transform="translate(165,272)"/>
<path d="M0 0 C-1.47559669 4.42679007 -3.90057368 4.91432696 -8 7 C-8.66 7 -9.32 7 -10 7 C-9.8125 4.625 -9.8125 4.625 -9 2 C-5.72271751 0.13992075 -3.8340246 0 0 0 Z " fill="#EF5441" transform="translate(220,249)"/>
<path d="M0 0 C0.66 0.33 1.32 0.66 2 1 C2 1.66 2 2.32 2 3 C4.64 3.33 7.28 3.66 10 4 C10.33 4.99 10.66 5.98 11 7 C9.02 7 7.04 7 5 7 C5 6.34 5 5.68 5 5 C3.35 4.67 1.7 4.34 0 4 C-0.33 3.01 -0.66 2.02 -1 1 C-0.67 0.67 -0.34 0.34 0 0 Z " fill="#F6463C" transform="translate(187,273)"/>
<path d="M0 0 C-0.33 0.99 -0.66 1.98 -1 3 C-2.32 3 -3.64 3 -5 3 C-5 4.32 -5 5.64 -5 7 C-8 8 -8 8 -10.1875 7.0625 C-10.785625 6.711875 -11.38375 6.36125 -12 6 C-10.37829621 4.99466333 -8.75252763 3.99588093 -7.125 3 C-5.76761719 2.1646875 -5.76761719 2.1646875 -4.3828125 1.3125 C-2 0 -2 0 0 0 Z " fill="#ED7C51" transform="translate(303,278)"/>
<path d="M0 0 C2.475 0.99 2.475 0.99 5 2 C5 2.99 5 3.98 5 5 C1.535 6.485 1.535 6.485 -2 8 C-1.33333333 5.33333333 -0.66666667 2.66666667 0 0 Z " fill="#F05442" transform="translate(212,185)"/>
<path d="M0 0 C1.11375 0.4640625 1.11375 0.4640625 2.25 0.9375 C6.9202708 2.89999849 6.9202708 2.89999849 11.75 2.0625 C12.4925 1.711875 13.235 1.36125 14 1 C13 4 13 4 11 5 C4.8125 5.45833333 4.8125 5.45833333 1.5625 3.625 C0 2 0 2 0 0 Z " fill="#E8674D" transform="translate(242,304)"/>
<path d="M0 0 C0.33 0.66 0.66 1.32 1 2 C3.02463255 2.65213292 3.02463255 2.65213292 5 3 C5 3.66 5 4.32 5 5 C5.66 5 6.32 5 7 5 C7.33 6.32 7.66 7.64 8 9 C6.35 8.67 4.7 8.34 3 8 C2.67 6.68 2.34 5.36 2 4 C1.34 4 0.68 4 0 4 C0 2.68 0 1.36 0 0 Z " fill="#F96D46" transform="translate(266,255)"/>
<path d="M0 0 C-6.23440454 4.03402647 -6.23440454 4.03402647 -9.8125 3.875 C-12 3 -12 3 -14 1 C-13.113125 1.04125 -12.22625 1.0825 -11.3125 1.125 C-6.86470158 0.95715855 -4.25885704 -1.41961901 0 0 Z " fill="#EA7255" transform="translate(279,280)"/>
<path d="M0 0 C2.97 0.495 2.97 0.495 6 1 C6 1.66 6 2.32 6 3 C1.90909091 5.72727273 1.90909091 5.72727273 -1 6 C-2.75 4.5625 -2.75 4.5625 -4 3 C-2.68 3 -1.36 3 0 3 C0 2.01 0 1.02 0 0 Z " fill="#F47C49" transform="translate(298,192)"/>
<path d="M0 0 C0.33 1.32 0.66 2.64 1 4 C-0.45505358 4.52992692 -1.91418127 5.0486789 -3.375 5.5625 C-4.59316406 5.99755859 -4.59316406 5.99755859 -5.8359375 6.44140625 C-8 7 -8 7 -10 6 C-6.7 4.02 -3.4 2.04 0 0 Z " fill="#E6654E" transform="translate(244,185)"/>
<path d="M0 0 C0.99 0.33 1.98 0.66 3 1 C2.01 1.495 2.01 1.495 1 2 C1 2.66 1 3.32 1 4 C-0.65 4.33 -2.3 4.66 -4 5 C-4.33 5.99 -4.66 6.98 -5 8 C-5.99 8 -6.98 8 -8 8 C-8 7.01 -8 6.02 -8 5 C-7.34 5 -6.68 5 -6 5 C-6 4.34 -6 3.68 -6 3 C-5.195625 2.690625 -4.39125 2.38125 -3.5625 2.0625 C-1.10919595 1.23664655 -1.10919595 1.23664655 0 0 Z " fill="#F8453B" transform="translate(189,164)"/>
<path d="M0 0 C0.66 1.32 1.32 2.64 2 4 C2.66 4 3.32 4 4 4 C4 4.66 4 5.32 4 6 C3.34 6 2.68 6 2 6 C2 6.66 2 7.32 2 8 C1.01 7.67 0.02 7.34 -1 7 C-1.8125 5.125 -1.8125 5.125 -2 3 C-1.34 2.01 -0.68 1.02 0 0 Z " fill="#FB3B33" transform="translate(172,288)"/>
<path d="M0 0 C0.66 0.33 1.32 0.66 2 1 C2 2.98 2 4.96 2 7 C0.02 7.99 0.02 7.99 -2 9 C-2.25 3.375 -2.25 3.375 0 0 Z " fill="#FA352F" transform="translate(157,215)"/>
<path d="M0 0 C1.32 0 2.64 0 4 0 C3.34 2.31 2.68 4.62 2 7 C1.01 6.67 0.02 6.34 -1 6 C-1.8125 4.0625 -1.8125 4.0625 -2 2 C-1.34 1.34 -0.68 0.68 0 0 Z " fill="#FD4038" transform="translate(187,201)"/>
<path d="M0 0 C2.64 0 5.28 0 8 0 C8.33 1.65 8.66 3.3 9 5 C5.22454612 3.90931332 2.52956528 3.0916909 0 0 Z " fill="#E86B51" transform="translate(252,171)"/>
<path d="M0 0 C0 3.14213983 -0.33280556 5.93090555 -1 9 C-1.99 9.495 -1.99 9.495 -3 10 C-4.0730756 6.7807732 -3.79946725 6.09793558 -3 3 C-3.33 2.34 -3.66 1.68 -4 1 C-2.68 0.67 -1.36 0.34 0 0 Z " fill="#FB8D4A" transform="translate(341,264)"/>
<path d="M0 0 C-0.33 0.99 -0.66 1.98 -1 3 C-4.93275129 4.36133698 -8.90892832 5.25616878 -13 6 C-10.83049884 3.57206296 -8.99994161 2.3943719 -5.9375 1.3125 C-5.24527344 1.06113281 -4.55304688 0.80976563 -3.83984375 0.55078125 C-2 0 -2 0 0 0 Z " fill="#F05745" transform="translate(230,259)"/>
<path d="M0 0 C1.64846769 0.44876616 3.29373455 0.90930488 4.9375 1.375 C5.85402344 1.63023437 6.77054687 1.88546875 7.71484375 2.1484375 C10 3 10 3 11 5 C8.69 5.33 6.38 5.66 4 6 C4.33 5.01 4.66 4.02 5 3 C2.525 2.01 2.525 2.01 0 1 C0 0.67 0 0.34 0 0 Z " fill="#EB7B53" transform="translate(284,148)"/>
<path d="M0 0 C1.79398267 0.95399078 3.58511655 1.91334026 5.375 2.875 C6.37273437 3.40867187 7.37046875 3.94234375 8.3984375 4.4921875 C11 6 11 6 13 8 C7.64147506 7.60791281 3.85831875 5.6642613 0 2 C0 1.34 0 0.68 0 0 Z " fill="#DE5647" transform="translate(198,278)"/>
<path d="M0 0 C0.66 0 1.32 0 2 0 C2 2.31 2 4.62 2 7 C0.35 7.66 -1.3 8.32 -3 9 C-2.01 6.03 -1.02 3.06 0 0 Z " fill="#E96751" transform="translate(243,230)"/>
<path d="M0 0 C3.81538462 2.46153846 3.81538462 2.46153846 4.75 5.1875 C4.8325 5.785625 4.915 6.38375 5 7 C1.62496331 5.8141763 -0.64722731 4.72426311 -3 2 C-2.01 2 -1.02 2 0 2 C0 1.34 0 0.68 0 0 Z " fill="#EE5644" transform="translate(214,271)"/>
<path d="M0 0 C0.99 0.66 1.98 1.32 3 2 C1.75579353 2.5345256 0.50429064 3.05208611 -0.75 3.5625 C-1.44609375 3.85253906 -2.1421875 4.14257812 -2.859375 4.44140625 C-5.30012784 5.07831803 -6.6403655 4.80248831 -9 4 C-8 3 -8 3 -5.4375 2.9375 C-4.2309375 2.9684375 -4.2309375 2.9684375 -3 3 C-3 2.34 -3 1.68 -3 1 C-2.01 0.67 -1.02 0.34 0 0 Z " fill="#E97952" transform="translate(284,328)"/>
<path d="M0 0 C0.66 0.33 1.32 0.66 2 1 C-0.23637531 3.23637531 -2.09619927 3.83847971 -5 5 C-5.66 5.66 -6.32 6.32 -7 7 C-7 6.34 -7 5.68 -7 5 C-7.66 4.67 -8.32 4.34 -9 4 C-7.54618103 3.30300448 -6.08677047 2.61766134 -4.625 1.9375 C-3.40683594 1.36322266 -3.40683594 1.36322266 -2.1640625 0.77734375 C-1.44992188 0.52082031 -0.73578125 0.26429688 0 0 Z " fill="#E75343" transform="translate(214,148)"/>
<path d="M0 0 C3.79303725 1.00193437 6.71536341 1.81024227 10 4 C10 4.66 10 5.32 10 6 C6.40992874 4.66654496 3.20429093 3.1056769 0 1 C0 0.67 0 0.34 0 0 Z " fill="#E55246" transform="translate(196,320)"/>
<path d="M0 0 C-1.28524261 0.86380259 -2.57842419 1.71580369 -3.875 2.5625 C-4.59429687 3.03816406 -5.31359375 3.51382812 -6.0546875 4.00390625 C-6.69664062 4.33261719 -7.33859375 4.66132813 -8 5 C-8.66 4.67 -9.32 4.34 -10 4 C-7.06485676 -0.40271486 -5.03472644 -1.47460607 0 0 Z " fill="#E97B54" transform="translate(289,274)"/>
<path d="M0 0 C2.64 0 5.28 0 8 0 C7.67 1.32 7.34 2.64 7 4 C4.97954558 3.39816251 2.97888961 2.72693904 1 2 C0.67 1.34 0.34 0.68 0 0 Z " fill="#F2744B" transform="translate(277,248)"/>
<path d="M0 0 C1.32 0 2.64 0 4 0 C4 0.66 4 1.32 4 2 C4.66 2.33 5.32 2.66 6 3 C4.02 3.66 2.04 4.32 0 5 C0 3.35 0 1.7 0 0 Z " fill="#F74B33" transform="translate(201,234)"/>
<path d="M0 0 C0.66 0.33 1.32 0.66 2 1 C1.34 2.65 0.68 4.3 0 6 C-1.32 5.67 -2.64 5.34 -4 5 C-3 2 -3 2 0 0 Z " fill="#DE5A45" transform="translate(211,267)"/>
<path d="M0 0 C0.33 0.99 0.66 1.98 1 3 C0.195625 3.12375 -0.60875 3.2475 -1.4375 3.375 C-2.7059375 3.684375 -2.7059375 3.684375 -4 4 C-4.33 4.66 -4.66 5.32 -5 6 C-5.66 5.34 -6.32 4.68 -7 4 C-4.69 2.68 -2.38 1.36 0 0 Z " fill="#E1523F" transform="translate(203,153)"/>
</svg>
